<svg xmlns="http://www.w3.org/2000/svg" 
xmlns:xlink="http://www.w3.org/1999/xlink" viewBox=" 0 0 24 24" role="img" aria-label="이 추정 소득은 예상되는 1박 가격에 따라 한 달에 15박의 예약이 이루어진 경우를 상정하여 계산된 것입니다. 예상되는 1박 가격은 유사한 지역, 숙소 종류 및 게스트 수용 정도를 가진 숙소들의 평균 가격을 토대로 결정됩니다. 회원님이 실제 얻는 소득은 회원님이 정한 가격, 숙소 종류 및 숙소의 위치, 실제 숙박율, 시즌, 수요, 현지 법률 및 다른 요소들에 따라 다를 수 있습니다."
focusable="false" height= "20px" width= "20px" display= "block" style ="fill: white">
<path d ="m12 0c-6.63 0-12 5.37-12 12s5.37 12 12 12 12-5.37 12-12-5.37-12-12-12zm0 23c-6.07 0-11-4.92-11-11s4.93-11 11-11 11 4.93 11 11-4.93 11-11 11zm4.75-14c0 1.8-.82 2.93-2.35 3.89-.23.14-1 .59-1.14.67-.4.25-.51.38-.51.44v2a .75.75 0 0 1 -1.5 0v-2c0-.74.42-1.22 1.22-1.72.17-.11.94-.55 1.14-.67 1.13-.71 1.64-1.41 1.64-2.61a3.25 3.25 0 0 0 -6.5 0 .75.75 0 0 1 -1.5 0 4.75 4.75 0 0 1 9.5 0zm-3.75 10a1 1 0 1 1 -2 0 1 1 0 0 1 2 0z" fill-rule="evenodd"></path></svg>