<svg height="512pt" viewBox="0 0 512 512" width="512pt" xmlns="http://www.w3.org/2000/svg"><path d="m437.019531 74.980469c-48.351562-48.351563-112.636719-74.980469-181.019531-74.980469-68.378906 0-132.667969 26.628906-181.019531 74.980469-48.351563 48.351562-74.980469 112.636719-74.980469 181.019531 0 68.378906 26.628906 132.667969 74.980469 181.019531 48.351562 48.351563 112.640625 74.980469 181.019531 74.980469 68.382812 0 132.667969-26.628906 181.019531-74.980469 48.351563-48.351562 74.980469-112.636719 74.980469-181.019531s-26.628906-132.667969-74.980469-181.019531zm-56.804687 157.542969-113.609375 113.609374c-8.902344 8.902344-20.738281 13.804688-33.328125 13.804688s-24.425782-4.902344-33.328125-13.804688l-68.164063-68.167968c-8.902344-8.902344-13.804687-20.738282-13.804687-33.324219 0-12.589844 4.902343-24.425781 13.804687-33.328125s20.738282-13.804688 33.328125-13.804688c12.589844 0 24.425781 4.902344 33.328125 13.804688l34.835938 34.835938 80.28125-80.28125c8.902344-8.902344 20.738281-13.804688 33.328125-13.804688 12.589843 0 24.425781 4.902344 33.328125 13.804688 18.378906 18.378906 18.378906 48.28125 0 66.65625zm0 0"/><path d="m346.886719 182.0625c-4.574219 0-8.878907 1.78125-12.117188 5.019531l-90.886719 90.886719c-2.8125 2.8125-6.625 4.390625-10.605468 4.390625-3.980469 0-7.792969-1.578125-10.605469-4.390625l-45.441406-45.441406c-3.234375-3.238282-7.539063-5.019532-12.117188-5.019532-4.574219 0-8.878906 1.78125-12.113281 5.019532-3.234375 3.234375-5.019531 7.535156-5.019531 12.113281 0 4.574219 1.78125 8.878906 5.019531 12.113281l68.164062 68.167969c3.238282 3.234375 7.539063 5.019531 12.113282 5.019531 4.578125 0 8.878906-1.785156 12.117187-5.019531l113.609375-113.609375c6.679688-6.679688 6.679688-17.550781 0-24.234375-3.234375-3.234375-7.539062-5.015625-12.117187-5.015625zm0 0"/></svg>