<?xml version="1.0" standalone="no"?>
<!DOCTYPE svg PUBLIC "-//W3C//DTD SVG 20010904//EN"
 "http://www.w3.org/TR/2001/REC-SVG-20010904/DTD/svg10.dtd">
<svg version="1.0" xmlns="http://www.w3.org/2000/svg"
 width="2000.000000pt" height="1829.000000pt" viewBox="0 0 2000.000000 1829.000000"
 preserveAspectRatio="xMidYMid meet">

<g transform="translate(0.000000,1829.000000) scale(0.100000,-0.100000)"
fill="#000000" stroke="none">
<path d="M0 9145 l0 -9145 10000 0 10000 0 0 9145 0 9145 -10000 0 -10000 0 0
-9145z m9891 -2138 c77 -41 117 -162 89 -276 -13 -54 -36 -84 -123 -156 l-47
-40 89 -148 c49 -82 93 -153 99 -159 6 -6 23 7 48 38 90 111 129 134 166 97
29 -30 15 -63 -68 -164 -41 -49 -74 -91 -74 -94 0 -2 16 -29 35 -60 45 -70 54
-109 30 -135 -37 -41 -61 -28 -143 79 l-18 23 -64 -41 c-85 -55 -156 -75 -237
-68 -78 8 -139 34 -185 79 -60 61 -73 99 -73 218 0 96 2 110 30 163 19 39 55
83 105 130 l76 71 -40 79 c-34 66 -41 90 -44 152 -4 64 0 81 23 130 23 49 33
60 78 81 73 33 185 34 248 1z m-2946 -72 c57 -56 16 -145 -66 -145 -58 0 -89
29 -89 84 0 56 30 86 87 86 33 0 50 -6 68 -25z m6409 -6 c14 -17 26 -41 26
-54 0 -13 -12 -37 -26 -54 -21 -25 -33 -31 -66 -31 -51 0 -72 12 -88 49 -26
64 13 121 84 121 37 0 48 -5 70 -31z m-9167 -55 c11 -17 18 -54 21 -110 l5
-84 66 0 c83 0 111 -17 111 -65 0 -48 -28 -65 -111 -65 l-66 0 -5 -267 c-5
-313 -6 -316 -76 -311 -44 3 -48 5 -59 38 -8 23 -12 120 -12 288 l-1 252 -74
0 c-78 0 -90 6 -101 50 -4 18 0 34 15 53 20 25 27 27 91 27 l69 0 0 75 c0 43
6 90 14 110 14 32 19 35 55 35 33 0 44 -5 58 -26z m6380 0 c11 -17 18 -54 21
-110 l5 -84 66 0 c83 0 111 -17 111 -65 0 -48 -28 -65 -111 -65 l-66 0 -5
-267 c-3 -148 -9 -276 -13 -285 -4 -10 -23 -20 -42 -24 -77 -15 -93 46 -93
364 l0 212 -74 0 c-78 0 -90 6 -101 50 -4 18 0 34 15 53 20 25 27 27 91 27
l69 0 0 75 c0 43 6 90 14 110 14 32 19 35 55 35 33 0 44 -5 58 -26z m-5593
-213 c107 -52 165 -148 173 -284 9 -138 -39 -268 -120 -330 -74 -56 -117 -71
-222 -75 -85 -3 -109 -1 -159 19 -71 26 -141 91 -174 161 -68 146 -40 341 65
443 76 74 143 96 283 92 87 -2 113 -7 154 -26z m420 7 c9 -12 16 -31 16 -40 0
-16 4 -16 38 6 56 38 118 56 189 56 80 0 120 -16 165 -69 61 -72 71 -118 76
-362 3 -178 1 -221 -12 -252 -14 -35 -18 -37 -60 -37 -72 0 -76 10 -76 168 0
160 -14 295 -35 345 -32 76 -114 91 -214 40 l-56 -29 -6 -104 c-4 -58 -7 -159
-8 -225 -1 -66 -6 -137 -12 -157 -10 -37 -11 -38 -60 -38 -45 0 -51 3 -61 28
-16 39 -23 530 -9 606 14 74 24 86 72 86 28 0 42 -6 53 -22z m1079 6 c85 -29
160 -125 193 -247 8 -29 17 -106 20 -172 13 -263 -53 -464 -180 -552 -67 -46
-114 -56 -236 -51 -153 7 -230 44 -230 114 0 34 28 74 52 74 6 0 41 -12 76
-26 93 -37 182 -37 245 -1 58 34 104 121 113 214 l7 63 -41 -40 c-50 -47 -92
-60 -192 -60 -93 0 -135 11 -196 53 -91 62 -135 191 -114 339 19 136 92 236
206 283 73 30 203 34 277 9z m461 -3 c15 -17 17 -56 14 -452 l-3 -434 -25 -49
c-14 -28 -42 -64 -63 -80 -35 -28 -47 -31 -121 -34 -95 -4 -116 7 -116 62 0
42 16 56 62 56 20 0 48 5 61 11 52 23 52 23 57 480 4 341 8 429 19 442 19 24
93 23 115 -2z m586 -2 c25 -11 55 -30 68 -41 l22 -21 0 23 c0 13 7 32 17 42
20 23 85 24 103 2 34 -40 33 -649 -1 -690 -8 -10 -26 -14 -53 -12 -35 3 -43 8
-57 35 l-16 32 -34 -23 c-52 -35 -95 -46 -179 -46 -145 0 -233 48 -287 158
-24 49 -28 71 -32 164 -6 187 49 306 170 367 55 28 72 31 148 31 65 0 97 -5
131 -21z m526 -11 c9 -18 17 -34 19 -35 1 -2 28 11 60 29 50 27 73 32 140 36
69 3 86 0 125 -20 56 -29 95 -84 117 -168 26 -97 26 -464 0 -503 -15 -23 -25
-27 -61 -27 -24 0 -48 6 -54 13 -7 8 -14 88 -18 193 -10 276 -31 354 -103 374
-45 12 -93 1 -158 -35 l-50 -27 -5 -236 c-3 -158 -9 -244 -17 -259 -9 -19 -20
-23 -55 -23 -27 0 -48 6 -56 15 -20 24 -35 410 -22 550 12 142 19 155 77 155
40 0 46 -3 61 -32z m1050 17 c72 -21 127 -73 169 -158 52 -106 66 -219 56
-442 -7 -151 -56 -272 -143 -350 -69 -62 -124 -78 -256 -74 -95 4 -114 8 -167
34 -69 35 -86 64 -65 114 17 41 45 47 110 21 215 -85 347 -6 375 224 l7 59
-34 -38 c-49 -57 -97 -75 -199 -75 -105 0 -163 18 -222 70 -69 61 -92 123 -92
250 0 184 48 269 195 345 69 36 185 44 266 20z m2165 4 c19 -6 51 -25 72 -41
32 -25 37 -26 37 -11 0 63 92 89 127 36 16 -24 18 -57 18 -323 0 -220 -3 -305
-13 -332 -13 -36 -16 -38 -58 -38 -42 0 -46 2 -59 35 l-15 34 -52 -32 c-46
-29 -60 -32 -143 -35 -162 -6 -246 36 -305 152 -34 68 -35 71 -35 190 1 143
20 205 87 281 60 69 122 95 224 95 45 0 96 -5 115 -11z m546 -19 c7 -14 14
-29 15 -33 2 -4 30 7 63 25 50 27 72 32 140 36 101 4 154 -19 202 -91 48 -71
58 -134 58 -367 0 -180 -2 -209 -18 -233 -15 -23 -25 -27 -61 -27 -24 0 -48 6
-53 13 -6 6 -13 93 -17 192 -10 285 -29 354 -103 374 -47 13 -94 3 -161 -34
l-50 -27 -4 -237 c-4 -274 -6 -281 -73 -281 -70 0 -70 -1 -70 355 0 366 0 368
72 363 39 -2 50 -7 60 -28z m1065 18 c59 -17 133 -89 167 -161 42 -89 54 -164
54 -317 -1 -233 -46 -375 -148 -468 -77 -70 -128 -86 -265 -80 -94 4 -115 8
-166 34 -64 32 -77 55 -62 111 11 44 40 50 108 23 136 -54 228 -46 297 26 44
45 65 98 79 199 l7 50 -31 -33 c-48 -51 -104 -72 -198 -72 -44 0 -103 7 -130
15 -107 31 -180 132 -191 262 -16 192 75 356 226 406 56 19 198 22 253 5z
m473 -12 c14 -21 16 -76 13 -448 l-3 -423 -29 -58 c-41 -85 -94 -117 -193
-117 -80 0 -113 18 -113 63 0 38 16 50 75 58 66 9 91 28 105 78 6 21 10 199
10 431 0 452 -2 440 75 440 36 0 48 -5 60 -24z m572 9 c20 -9 52 -27 70 -41
l33 -25 0 25 c0 38 26 57 74 54 66 -5 69 -27 62 -359 -6 -309 -13 -352 -58
-357 -33 -4 -68 28 -68 63 0 32 -3 31 -49 -6 -103 -82 -299 -79 -399 7 -84 72
-121 199 -102 351 18 141 91 249 196 287 54 20 195 20 241 1z m525 -2 c10 -9
18 -24 18 -35 0 -21 9 -23 35 -5 30 20 151 57 188 57 94 0 173 -56 207 -147
27 -73 43 -239 38 -388 -5 -114 -15 -159 -42 -177 -20 -14 -56 -8 -76 12 -18
18 -20 33 -20 158 0 245 -28 374 -86 400 -46 21 -107 14 -175 -20 l-64 -33 -7
-218 c-8 -295 -11 -307 -70 -307 -53 0 -58 22 -68 307 -9 256 -3 370 22 400
15 18 78 16 100 -4z m1088 -10 c65 -29 145 -114 170 -179 32 -86 43 -186 37
-329 -11 -253 -75 -397 -208 -470 -47 -25 -67 -30 -150 -33 -118 -5 -195 10
-248 49 -35 24 -41 35 -41 64 0 43 32 79 63 72 12 -3 49 -15 82 -27 36 -13 84
-22 120 -23 131 -1 203 79 224 249 l7 60 -41 -42 c-51 -54 -101 -68 -220 -62
-110 5 -154 26 -207 96 -54 71 -70 122 -70 227 0 103 23 178 76 248 36 48 120
102 180 116 63 15 174 7 226 -16z"/>
<path d="M9745 6900 c-11 -4 -31 -21 -45 -36 -33 -39 -31 -86 10 -162 28 -52
35 -60 51 -52 39 21 79 104 79 165 0 57 -51 102 -95 85z"/>
<path d="M9628 6392 c-76 -80 -92 -113 -93 -194 0 -72 14 -102 69 -142 42 -32
166 -30 221 3 94 58 96 36 -20 221 -56 90 -106 165 -112 167 -5 2 -34 -23 -65
-55z"/>
<path d="M4754 6551 c-102 -26 -158 -109 -157 -231 2 -131 77 -213 194 -213
80 0 138 35 173 105 55 110 24 267 -62 316 -44 25 -104 34 -148 23z"/>
<path d="M6277 6536 c-90 -24 -136 -95 -137 -206 0 -110 48 -181 139 -201 150
-34 275 141 217 304 -33 90 -117 130 -219 103z"/>
<path d="M7355 6551 c-79 -20 -123 -83 -132 -189 -10 -119 26 -211 96 -246 65
-33 145 -26 205 17 75 53 101 214 50 315 -39 79 -134 124 -219 103z"/>
<path d="M8885 6531 c-30 -13 -47 -31 -70 -72 -25 -46 -29 -64 -29 -129 0 -82
13 -117 61 -162 51 -48 142 -57 203 -21 39 24 86 78 99 114 19 56 14 150 -12
200 -42 81 -158 113 -252 70z"/>
<path d="M11107 6546 c-50 -18 -76 -42 -98 -91 -39 -88 -33 -217 14 -286 60
-88 211 -98 283 -17 70 77 80 232 21 320 -44 65 -148 100 -220 74z"/>
<path d="M12694 6541 c-93 -23 -146 -97 -147 -204 -1 -81 16 -129 58 -166 113
-99 272 -34 305 124 33 158 -75 280 -216 246z"/>
<path d="M13759 6551 c-81 -26 -120 -88 -127 -201 -2 -41 1 -94 7 -117 27 -99
119 -155 220 -132 92 20 141 86 149 199 6 84 -11 142 -54 190 -46 51 -136 79
-195 61z"/>
<path d="M15295 6531 c-82 -37 -122 -117 -112 -223 7 -81 33 -127 87 -156 109
-60 234 -12 275 107 27 81 14 190 -29 240 -46 52 -146 67 -221 32z"/>
</g>
</svg>
