<svg width="44" height="44" viewBox="0 0 36 36" version="1.1" xmlns="http://www.w3.org/2000/svg"><g id="Page-1" stroke="none" stroke-width="1" fill="none" fill-rule="evenodd"><circle id="Oval" fill="#EFEFEF" cx="18" cy="18" r="18"></circle><g transform="translate(9.000000, 12.000000)" fill="#8e8e8e" fill-rule="nonzero"><path d="M16.7972727,2.052 L10.5905455,8.14909091 C10.152,8.57945455 9.576,8.79545455 9,8.79545455 C8.424,8.79545455 7.848,8.57945455 7.40863636,8.14909091 L1.20190909,2.052 C0.962181818,1.81636364 0.962181818,1.43427273 1.20190909,1.19863636 C1.44163636,0.963818182 1.83027273,0.963818182 2.07,1.19863636 L8.27672727,7.29572727 C8.67518182,7.68845455 9.324,7.68845455 9.72327273,7.29572727 L15.9291818,1.19863636 C16.1689091,0.963818182 16.5575455,0.963818182 16.7972727,1.19863636 C17.037,1.43427273 17.037,1.81636364 16.7972727,2.052 Z M0,11.4545455 L18,11.4545455 L18,0 L0,0 L0,11.4545455 Z"></path></g></g></svg>